# xmcd
#
# Track frame offsets:
#	150
#	25477
#	37012
#	51002
#	62030
#	71562
#	88205
#	105977
#	116717
#
# Disc length: 1662 seconds
#
# Revision: 0
# Processed by: cddbd v1.5.1PL2 Copyright (c) Steve Scherf et al.
# Submitted via: audiograbber 1.83.01
#
DISCID=7b067c09
DTITLE=James Cotton - 3 Harp Boogie
DYEAR=1993
DGENRE=Blues
TTITLE0=Jelly Jelly
TTITLE1=South Side Boogie
TTITLE2=So Glad You're Mine
TTITLE3=Good Time Charly
TTITLE4=Diggin' My Potatoes
TTITLE5=There's Something On Your Mind
TTITLE6=V-Ford Blues
TTITLE7=Turn On Your Love Light
TTITLE8=Dolly Put The Kettle On
EXTD=Tomato Records, a Registered Trademark of The EGGE Company Limited
EXTT0=
EXTT1=
EXTT2=
EXTT3=
EXTT4=
EXTT5=
EXTT6=
EXTT7=
EXTT8=
PLAYORDER=
